<?xml version="1.0" encoding="UTF-8"?>
<svg version="1.1" viewBox="0 0 1600 1600" width="1280" height="1280" xmlns="http://www.w3.org/2000/svg">
<path transform="translate(901 490)" d="m0 0c3.16 1.88 4.63 3.47 6.62 6.56 0.38 2.76 0.53 5.1 0.49 7.85 0 0.77 0.01 1.55 0.01 2.35 0.01 2.55-0.01 5.1-0.03 7.65-0.01 1.78-0.01 3.55-0.01 5.33 0 3.72-0.02 7.44-0.04 11.2-0.04 4.77-0.05 9.53-0.04 14.3 0 3.67-0.02 7.34-0.03 11-0.01 1.76-0.01 3.52-0.01 5.28-0.01 2.45-0.02 4.91-0.04 7.36v2.2c-0.08 6.56-0.08 6.56-2.3 9.52-1.71 1.09-1.71 1.09-3.81 1.93-0.81 0.34-1.62 0.67-2.45 1.01-0.91 0.35-1.81 0.7-2.74 1.06-1.44 0.58-1.44 0.58-2.92 1.18-3.32 1.32-6.64 2.62-9.96 3.91-1.87 0.73-3.75 1.47-5.62 2.2-1.28 0.5-2.56 1-3.83 1.5-6.34 2.47-12.7 4.97-19 7.47-22.3 8.79-44.6 17.6-67 26.1-0.95 0.36-1.9 0.72-2.87 1.1-9.54 3.64-19.1 7.27-28.6 10.9-3.86 1.45-7.71 2.91-11.6 4.37-2.66 1-5.31 1.99-7.97 2.98-15.5 4.83-15.5 4.83-27.6 14.3-0.43 3.43-0.32 6.87-0.31 10.3-0.02 1.4-0.02 1.4-0.05 2.84 0 5.27 0.06 9.5 3.36 13.8 4.21 2.41 5.81 3.27 10.6 2.2 1.27-0.51 2.54-1.05 3.8-1.62 1.42-0.58 2.84-1.16 4.26-1.75 0.72-0.3 1.44-0.61 2.18-0.93 3.33-1.39 6.7-2.66 10.1-3.95 1.37-0.53 2.73-1.06 4.09-1.59 0.7-0.27 1.4-0.54 2.12-0.82 1.08-0.42 1.08-0.42 2.18-0.85 0.75-0.29 1.51-0.59 2.29-0.89 12-4.68 24-9.41 36-14.2 28-11.1 56-21.9 84.2-32.5 0.8-0.31 1.61-0.61 2.44-0.93 2.26-0.85 4.53-1.71 6.79-2.56 0.67-0.26 1.34-0.51 2.03-0.77 5.81-2.19 10.7-3.91 17-2.87 3.2 3.04 4.94 5.57 5.14 9.99 0 1.28 0.01 2.56 0.01 3.88 0 0.7 0.01 1.41 0.01 2.14 0.01 2.34 0.01 4.68 0.01 7.02 0.01 1.62 0.01 3.24 0.01 4.87 0.01 3.41 0.01 6.81 0.01 10.2 0 4.37 0.01 8.74 0.03 13.1 0.01 3.36 0.01 6.72 0.01 10.1 0 1.61 0.01 3.22 0.02 4.83 0.01 2.25 0 4.51 0 6.76v3.88c-0.23 3.07-0.5 4.75-2.25 7.24-2.66 1.48-2.66 1.48-6.07 2.85-0.61 0.25-1.23 0.5-1.87 0.76-2.01 0.82-4.03 1.61-6.06 2.39-0.67 0.26-1.34 0.53-2.03 0.8-5.65 2.19-11.3 4.32-17 6.45-8.02 3.01-16 6.09-23.9 9.41-0.68 0.28-1.36 0.55-2.06 0.84-3.53 1.48-3.53 1.48-6.17 4.14-1.14 3.27-1.1 6.4-1.08 9.82 0 0.75-0.01 1.49-0.01 2.26-0.01 1.61-0.01 3.23-0.01 4.84 0 2.56-0.01 5.11-0.03 7.67-0.04 7.26-0.07 14.5-0.08 21.8 0 4.45-0.03 8.89-0.06 13.3-0.01 1.69-0.01 3.39-0.01 5.08 0.01 2.37-0.01 4.74-0.03 7.1 0.01 1.05 0.01 1.05 0.02 2.12-0.05 3.33-0.31 5.05-2.38 7.71-2.74 2.07-5.63 3.55-8.72 5.01-1.44 0.7-2.88 1.4-4.31 2.1-0.81 0.39-1.62 0.79-2.45 1.19-5.26 2.62-10.5 5.36-15.7 8.08-9.04 4.7-18.1 9.39-27.2 14-0.98 0.5-1.95 1-2.95 1.52-5.24 2.64-10.1 4.74-15.9 5.73-2.81-1.18-2.81-1.18-5-3-0.53-0.43-1.06-0.86-1.61-1.3-1.88-2.3-1.76-3.74-1.77-6.69-0.01-1.04-0.02-2.07-0.03-3.13 0-1.13 0.01-2.26 0.01-3.43-0.01-1.79-0.01-1.79-0.02-3.61-0.02-3.27-0.02-6.54-0.01-9.81 0-2.74 0-5.47-0.01-8.2-0.01-6.44-0.01-12.9 0-19.3 0.01-6.65 0-13.3-0.03-19.9-0.02-5.7-0.03-11.4-0.02-17.1 0-3.41 0-6.81-0.02-10.2-0.01-3.8 0-7.6 0.01-11.4-0.01-1.12-0.02-2.25-0.03-3.41 0.08-7.64 0.08-7.64 2.43-11.5 4.23-3.77 7.23-5.46 13.1-5.24 3.33 0.6 5.48 2.2 8 4.36 1.22 3.65 1.16 7 1.16 10.8 0.01 0.79 0.01 1.59 0.02 2.4 0.01 1.72 0.02 3.44 0.02 5.16 0.02 2.73 0.04 5.45 0.06 8.17 0.06 7.75 0.11 15.5 0.15 23.2 0.02 4.73 0.05 9.47 0.1 14.2 0.01 1.8 0.02 3.6 0.02 5.41 0.01 2.53 0.03 5.05 0.06 7.58 0 0.74-0.01 1.48-0.01 2.25 0.07 4.42 0.62 7.33 3.42 10.8 3.9 1.71 6.22 2.49 10.3 1.37 2.51-1.05 4.89-2.23 7.29-3.49 0.82-0.41 1.64-0.81 2.48-1.23 2.34-1.17 4.63-2.35 6.89-3.65 1.03-0.52 2.05-1.05 3.1-1.59 3.24-2.18 3.24-2.18 3.65-5.97 0.03-1.44 0.02-2.89-0.01-4.34 0.01-1.19 0.01-1.19 0.03-2.4 0.01-1.72 0.01-3.44 0-5.15-0.02-2.72 0-5.44 0.03-8.16 0.08-7.73 0.08-15.5 0.08-23.2 0-4.73 0.03-9.46 0.1-14.2 0.02-2.68-0.01-5.35-0.03-8.03 0.04-11.6 0.04-11.6 2.64-15.1 2.12-1.39 3.99-2.15 6.41-2.87 1.23-0.53 2.46-1.07 3.69-1.62 1.25-0.47 2.5-0.94 3.76-1.39 0.68-0.26 1.37-0.52 2.07-0.78 1.46-0.55 2.91-1.09 4.37-1.63 3.8-1.4 7.59-2.84 11.4-4.27 1.12-0.43 1.12-0.43 2.27-0.86 6.5-2.45 13-4.97 19.4-7.57 0.89-0.36 1.79-0.71 2.7-1.07 0.81-0.33 1.62-0.66 2.45-1 0.69-0.28 1.38-0.56 2.09-0.85 2.05-1.08 3.34-2.19 4.82-3.96 1.34-4.99 1.06-9.95 0.82-15.1-0.02-0.79-0.04-1.58-0.06-2.39-0.18-3.75-0.59-6.22-2.31-9.61-2.72-2.15-4.43-2.67-7.89-2.44-6.05 1.19-11.8 3.6-17.5 5.82-1.53 0.57-3.05 1.15-4.57 1.73-4.25 1.61-8.48 3.24-12.7 4.88-2.87 1.11-5.75 2.22-8.63 3.33-13.4 5.18-26.9 10.4-40.3 15.6-7.25 2.83-14.5 5.65-21.8 8.48-0.72 0.28-1.44 0.56-2.18 0.84-14.4 5.62-28.9 11.2-43.3 16.7-3.89 1.48-7.78 2.97-11.7 4.48-1.69 0.65-3.39 1.3-5.08 1.95-0.72 0.28-1.44 0.56-2.18 0.86-4.36 1.64-7.99 2.49-12.6 1.82-3.47-2.67-4.84-4.16-5.64-8.53-0.03-1.37-0.03-2.74-0.02-4.12-0.01-0.75-0.02-1.5-0.03-2.28-0.03-2.48-0.02-4.96 0-7.44l-0.03-5.19c-0.01-3.62 0-7.24 0.02-10.9 0.02-4.63-0.01-9.27-0.05-13.9-0.02-3.57-0.02-7.14-0.01-10.7 0-1.71-0.01-3.42-0.02-5.13-0.02-2.39 0-4.78 0.02-7.17-0.01-0.7-0.02-1.41-0.04-2.13 0.1-4.05 0.7-5.41 3.55-8.36 2.73-1.81 5.12-3.21 8.16-4.39 0.93-0.36 1.85-0.73 2.81-1.1 0.99-0.38 1.99-0.76 3.01-1.14 1.04-0.41 2.09-0.82 3.16-1.24 3.39-1.31 6.78-2.61 10.2-3.91 2.34-0.91 4.69-1.82 7.04-2.73 12.8-4.94 25.5-9.82 38.3-14.6 11-4.15 22-8.48 33-12.8 12.3-4.8 24.6-9.49 36.9-14.1 12.5-4.67 25.1-9.38 37.5-14.4 1.66-0.66 1.66-0.66 3.36-1.34 1-0.41 2-0.81 3.03-1.24 0.86-0.35 1.72-0.69 2.61-1.06 3.57-1.81 4.92-3.3 6.18-7.11 0.24-3.76 0.19-7.54 0.19-11.3 0.01-1.03 0.03-2.07 0.04-3.13 0.01-5.21 0-9.74-2.23-14.6-2.76-2.76-5.16-3.55-9-4-2.8 0.62-2.8 0.62-5.71 1.78-1.14 0.43-2.28 0.85-3.46 1.28-1.25 0.48-2.51 0.96-3.76 1.44-1.32 0.5-2.64 0.99-3.96 1.48-14.9 5.61-29.7 11.5-44.5 17.4-4.66 1.85-9.33 3.67-14 5.46-1.07 0.42-2.15 0.83-3.26 1.26-1.93 0.73-3.87 1.47-5.81 2.19-0.83 0.32-1.66 0.64-2.52 0.97-0.7 0.26-1.41 0.53-2.14 0.8-2.09 1.06-3.36 2.12-4.85 3.93-0.98 4.28-0.98 8.19-0.87 12.6 0.01 4.62-0.13 7.72-3.13 11.4-4.96 3.17-10.1 5.03-16 4-3.45-2.71-5.31-4.68-6-9-0.06-2.57-0.07-5.11-0.01-7.68 0.01-0.74 0.02-1.48 0.04-2.25 0.03-1.56 0.07-3.12 0.11-4.68 0.05-2.38 0.08-4.76 0.11-7.15 0.03-1.51 0.07-3.03 0.11-4.55 0-0.71 0.01-1.42 0.01-2.15 0.11-3.19 0.39-5.19 2.25-7.82 2.9-2.09 5.9-3.55 9.18-4.91 0.69-0.3 1.39-0.59 2.1-0.9 8.96-3.76 18.1-7.17 27.2-10.6 5.51-2.07 11-4.15 16.5-6.24 1.12-0.42 2.24-0.84 3.4-1.28 13-4.93 26-9.97 39.1-15 1.68-0.65 3.36-1.3 5.04-1.96 0.81-0.31 1.62-0.62 2.45-0.95 7.04-2.72 14.1-5.41 21.2-8.08 0.81-0.31 1.62-0.61 2.45-0.93 0.8-0.3 1.59-0.6 2.41-0.91 1.73-0.68 3.46-1.38 5.17-2.1 0.89-0.37 1.78-0.74 2.69-1.12 0.8-0.34 1.6-0.68 2.42-1.04 2.17-0.7 2.17-0.7 5.55-0.26z" fill="#000102"/>
<path transform="translate(709 888)" d="m0 0c0.79 0.01 1.59 0.03 2.41 0.04 1.19 0.01 1.19 0.01 2.4 0.02 2.1 0.17 2.1 0.17 4.1 1.17 1.33 3.57 1.19 7.32 1.29 11.1 0.02 0.71 0.04 1.41 0.06 2.14 0.07 2.33 0.12 4.66 0.18 7 0.04 1.63 0.09 3.26 0.13 4.89 0.09 3.41 0.18 6.83 0.27 10.2 0.11 4.36 0.22 8.71 0.34 13.1 0.11 4.18 0.22 8.36 0.32 12.5 0.02 0.78 0.05 1.57 0.07 2.38 0.21 8.22 0.39 16.4 0.34 24.6-3.81 2.12-6.64 2.24-11 2-2-1-2-1-3-4-0.14-1.36-0.24-2.73-0.3-4.1-0.04-0.82-0.08-1.65-0.12-2.49-0.04-0.88-0.08-1.76-0.12-2.67-0.06-1.36-0.06-1.36-0.13-2.75-0.14-2.89-0.27-5.78-0.4-8.68l-0.27-5.88c-0.23-4.81-0.45-9.62-0.66-14.4h-2c-0.19 1.06-0.19 1.06-0.37 2.14-1.19 5.37-3.4 10.4-5.38 15.6-0.43 1.13-0.86 2.27-1.31 3.43-7.84 20.4-7.84 20.4-12.9 23.9-2.38 0.69-2.38 0.69-5 0-7.95-7.06-11.8-18.2-16.2-27.8-0.35-0.77-0.71-1.55-1.08-2.34-0.68-1.5-1.36-3-2.03-4.5-1.59-3.49-2.45-5.24-5.7-7.41 0 0.85 0.01 1.7 0.01 2.58 0.02 3.21 0.03 6.42 0.04 9.63 0.01 1.38 0.01 2.76 0.02 4.14 0.11 17.3 0.11 17.3-1.07 24.6-1.85 1.84-4.36 1.12-6.8 1.13-2.47-0.15-4.78-0.63-7.2-1.13-0.26-20.1 0-40.1 0.74-60.2 0.09-2.31 0.17-4.63 0.25-6.94 0.11-3.27 0.24-6.54 0.37-9.81 0.04-0.99 0.07-1.99 0.1-3.01 0.04-0.9 0.08-1.81 0.13-2.74 0.03-0.8 0.06-1.59 0.09-2.41 0.32-1.93 0.32-1.93 2.32-3.93 1.98-0.41 1.98-0.41 4.31-0.5 1.14-0.08 1.14-0.08 2.3-0.16 3.73 1.03 5.42 3.52 7.39 6.66 1.76 3.51 3.23 7.11 4.68 10.8 0.43 1.04 0.85 2.08 1.29 3.14 3.7 9.14 7.24 18.3 10.7 27.6 1.89 5 3.79 9.86 6.32 14.6 2.63-2.32 3.77-4.43 5.02-7.7 0.36-0.95 0.73-1.9 1.11-2.88 0.39-1.03 0.78-2.06 1.17-3.11 0.41-1.07 0.82-2.13 1.24-3.22 1.31-3.4 2.6-6.81 3.89-10.2 1.3-3.39 2.59-6.77 3.89-10.2 0.8-2.11 1.6-4.21 2.4-6.32 7.33-19.2 7.33-19.2 11.4-19.6z" fill="#000102"/>
<path transform="translate(570 893)" d="m0 0c5.21 3.99 8.78 8.95 10.6 15.3 1.08 8.45-0.13 15-5 22-2.15 2.56-4.33 4.97-7 7h-2c0.63 3.72 1.68 6.95 3.15 10.4 0.43 1.03 0.85 2.05 1.3 3.11s0.9 2.12 1.36 3.22c0.44 1.04 0.88 2.09 1.33 3.17 2.3 5.46 4.65 10.9 7.17 16.2 0.69 1.83 0.69 1.83 0.69 4.83-5.29 1.08-9.04 1.29-14-1-5.42-6.57-8.51-15.3-12-23-0.46-1-0.92-1.99-1.4-3.01-0.41-0.9-0.81-1.79-1.23-2.72-1.54-2.57-2.8-3.83-5.39-5.32-5.09-0.33-8.87 0.14-14 1l-1 33c-6.26 2.08-7.94 2.13-14 1-1.77-1.77-1.13-4.13-1.13-6.49v-2.38-2.5c-0.01-2.74-0.01-5.48 0-8.22 0-1.9 0-3.79-0.01-5.69 0-3.98 0.01-7.97 0.01-12 0.01-5.11 0-10.2 0-15.3-0.01-3.92-0.01-7.84 0-11.8 0-1.89 0-3.77-0.01-5.65 0-2.64 0.01-5.27 0.01-7.9v-2.38c0.01-3.18 0.12-5.71 1.13-8.75 14.2-3.21 38.5-3.83 51.4 3.74zm-36.4 10.3c-0.38 3.99-0.47 8-0.62 12-0.06 1.13-0.11 2.26-0.16 3.43-0.04 1.07-0.09 2.15-0.13 3.26-0.04 0.99-0.08 1.98-0.13 3.01-0.23 2.26-0.23 2.26 1.04 3.3 15.1 1.22 15.1 1.22 28.6-4.29 3.37-3.54 4.39-6.91 4.39-11.7-1.47-3.24-3.27-5.73-6-8-5.63-1.7-22.6-5.41-27-1z" fill="#000102"/>
<path transform="translate(447 892)" d="m0 0c9.52 8.04 12.2 21.6 13.5 33.4 1 15.9-1.32 31.6-11.8 44.1-6.55 6.62-13.6 9.89-23 10.2-8.33-0.29-14.7-2.8-21-8.25-11.6-12.7-13.7-29.2-13.1-45.7 0.7-12 3.58-23.4 12.5-31.8 12-9.83 29.8-10.4 42.8-2.07zm-35 15.2c-6.33 9.57-7.44 21.5-5.66 32.6 2.05 9.6 4.26 16.9 12.5 22.7 4.35 1.45 8.45 1.51 13 1 7.03-3.52 10.3-8.79 13-16 1.2-5.1 1.22-10 1.25-15.2 0.02-0.9 0.04-1.81 0.06-2.74 0.06-10.4-2.8-18.2-9.94-25.8-8.19-6.38-17.4-2.94-24.2 3.5z" fill="#000102"/>
<path transform="translate(811 888)" d="m0 0c10.2 5.59 14.8 28.8 18.5 39 1.52 4.14 3.05 8.28 4.59 12.4 0.37 1.01 0.74 2.02 1.12 3.05 2.81 7.57 5.77 15.1 8.88 22.5 1.7 4.14 2.95 7.91 3.47 12.4-4.77 1.97-8 2.4-13 1-1.77-2.41-2.95-4.35-4.19-7-1.89-4.66-1.89-4.66-5.5-7.69-3.1-0.42-6.13-0.43-9.26-0.41h-2.01c-2.09 0.01-4.19 0.02-6.29 0.03-1.43 0.01-2.86 0.01-4.28 0.02-3.49 0.01-6.98 0.02-10.5 0.05-0.2 0.6-0.4 1.21-0.6 1.84-0.26 0.8-0.53 1.61-0.8 2.44-0.26 0.79-0.52 1.59-0.79 2.4-2.45 6.95-2.45 6.95-4.81 9.32-2.19-0.09-4.38-0.25-6.56-0.44-1.2-0.1-2.4-0.21-3.63-0.31-1.39-0.13-1.39-0.13-2.81-0.25 0.58-5.06 1.68-9.49 3.37-14.3 0.24-0.69 0.48-1.38 0.72-2.09 0.78-2.24 1.56-4.48 2.35-6.72 0.54-1.56 1.08-3.13 1.63-4.69 1.1-3.19 2.21-6.37 3.32-9.55 1.49-4.28 2.96-8.57 4.42-12.9 7.17-21.1 7.17-21.1 10.5-29.8 0.41-1.08 0.82-2.17 1.24-3.28 2.2-4.03 6.03-8.24 10.9-7.07zm-3.42 31.4c-1.43 3.66-2.85 7.33-4.27 11-0.73 1.87-1.45 3.73-2.18 5.59-0.45 1.16-0.9 2.33-1.36 3.53-0.42 1.08-0.84 2.16-1.27 3.27-1.03 2.47-1.03 2.47-0.92 4.62 2.92 0.84 5.51 1.11 8.55 1.09 0.84 0 1.68 0 2.55-0.01 0.88 0 1.75-0.01 2.65-0.02 0.89-0.01 1.77-0.01 2.69-0.02 2.19-0.01 4.37-0.02 6.56-0.04 1.22-3.66 0.67-4.49-0.77-7.97-0.39-0.96-0.79-1.93-1.2-2.92-0.63-1.51-0.63-1.51-1.28-3.05-0.41-1-0.82-2.01-1.24-3.04-2.58-6.4-2.58-6.4-6.51-12h-2z" fill="#000102"/>
<path transform="translate(312 888)" d="m0 0c1.26-0 2.53-0.01 3.83-0.01 8.5 0.01 16.9 0.42 25.4 1.13 0.16 4.93 0.25 8.51-2 13-8.04 1.13-16 1.12-24.1 1.07-1.35-0.01-2.71-0.01-4.06-0.02-3.29-0.01-6.58-0.03-9.87-0.05v23c2.04 0.05 4.09 0.1 6.2 0.15 1.99 0.06 3.98 0.11 5.97 0.17 1.38 0.04 2.76 0.08 4.14 0.11 1.98 0.04 3.97 0.1 5.95 0.16 1.2 0.03 2.39 0.06 3.62 0.1 2.93 0.3 4.64 0.79 7.12 2.31-0.12 1.44-0.24 2.88-0.38 4.32-0.07 0.8-0.14 1.6-0.21 2.42-0.41 2.26-0.41 2.26-2.41 5.26-2.98 0.44-2.98 0.44-6.76 0.52-0.99 0.02-0.99 0.02-2.01 0.05-2.12 0.06-4.24 0.09-6.36 0.12-1.43 0.04-2.87 0.07-4.31 0.11-3.52 0.08-7.04 0.15-10.6 0.2-0.02 0.99-0.04 1.97-0.06 2.99-0.08 3.65-0.17 7.3-0.26 11-0.04 1.58-0.07 3.16-0.1 4.74-0.05 2.27-0.11 4.54-0.17 6.81-0.02 1.06-0.02 1.06-0.03 2.14-0.11 3.65-0.3 5.26-2.38 8.37-4.58 1.36-7.66 0.93-12-1-1.45-2.88-1.13-5.38-1.13-8.61 0-0.68-0.01-1.36-0.01-2.06v-6.78-4.73c0-3.32 0-6.64 0.01-9.96 0-4.21 0-8.43-0.01-12.6v-9.8-4.65c-0.01-9.64 0.3-19.2 1.14-28.8 8.62-0.94 17.1-1.15 25.8-1.12z" fill="#000102"/>
<path transform="translate(1104 888)" d="m0 0c1.08 0 2.15 0 3.26 0.01 9.6 0.05 19.2 0.48 28.7 1.11 0.08 4.52 0.1 8.6-1 13-13 1.47-26 1.09-39 1v24c3.07-0.03 3.07-0.03 6.2-0.07 1.99-0.01 3.98-0.02 5.97-0.03 1.38-0.01 2.76-0.03 4.14-0.05 1.98-0.02 3.97-0.03 5.96-0.04 1.79-0.02 1.79-0.02 3.61-0.03 2.98 0.21 4.62 0.66 7.12 2.22-0.11 1.44-0.24 2.88-0.38 4.32-0.06 0.8-0.13 1.6-0.21 2.42-0.41 2.26-0.41 2.26-2.41 5.26-2.98 0.44-2.98 0.44-6.76 0.52-0.99 0.02-0.99 0.02-2.01 0.05-2.12 0.06-4.24 0.09-6.35 0.12-1.44 0.04-2.88 0.07-4.31 0.11-3.53 0.08-7.05 0.15-10.6 0.2-0.03 1.02-0.05 2.04-0.08 3.09-0.09 3.78-0.19 7.56-0.29 11.3-0.05 1.64-0.09 3.27-0.13 4.91-0.05 2.35-0.12 4.69-0.18 7.04-0.03 1.1-0.03 1.1-0.05 2.22-0.16 5.19-0.16 5.19-1.27 7.41-4.69 1.71-8.41 0.46-13-1-1.65-3.29-1.14-6.97-1.13-10.6 0-0.89-0.01-1.77-0.01-2.69 0-2.92 0.01-5.85 0.02-8.78v-3.01c0.02-21 0.49-42 1.12-62.9 7.69-0.83 15.3-1.15 23-1.12z" fill="#000102"/>
<path transform="translate(639,642)" d="m0 0c1.62 4.75 2.67 8.18 1 13-2.64 1.76-4.91 2.98-7.78 4.24-0.8 0.37-1.6 0.75-2.42 1.13-2.57 1.19-5.15 2.35-7.74 3.51-1.67 0.77-3.35 1.54-5.02 2.31-11 5.05-22 9.93-33 14.8 3.99 3.49 8.04 5.64 12.8 7.83 0.75 0.35 1.51 0.7 2.29 1.07 2.4 1.12 4.81 2.24 7.22 3.35 5.47 2.54 10.9 5.09 16.4 7.67 1.56 0.73 3.11 1.45 4.67 2.16 2.26 1.04 4.5 2.09 6.75 3.15 0.68 0.31 1.36 0.62 2.06 0.93 2.98 1.43 4.59 2.26 5.88 5.37-0.07 3.65-1.88 5.64-4.05 8.47-5.43-0.5-9.62-1.4-14.6-3.69-0.66-0.29-1.31-0.59-1.98-0.89-2.48-1.13-4.94-2.27-7.4-3.42-1.71-0.79-3.41-1.58-5.12-2.37-6.45-2.98-12.9-5.99-19.3-9.02-4.01-1.89-8.04-3.75-12.1-5.6-1.9-0.88-3.79-1.76-5.69-2.63-1.29-0.59-1.29-0.59-2.6-1.18-7.3-3.41-7.3-3.41-9.21-7.2-0.5-3.44-0.5-3.44 0-7 3.38-4 6.78-6.16 11.5-8.35 0.63-0.29 1.26-0.58 1.91-0.89 2.04-0.95 4.1-1.89 6.15-2.82 1.43-0.66 2.86-1.32 4.29-1.98 13.6-6.26 27.3-12.2 41.2-18 0.95-0.4 1.89-0.8 2.86-1.22 0.89-0.37 1.77-0.73 2.68-1.11 0.77-0.33 1.53-0.65 2.33-0.98 2.13-0.69 2.13-0.69 6.13-0.69z" fill="#000102"/>
<path transform="translate(961,642)" d="m0 0c22.4 1.4 47.3 17.9 67 28 1.05 0.51 1.05 0.51 2.12 1.04 0.72 0.35 1.44 0.7 2.18 1.06 0.66 0.32 1.31 0.64 1.99 0.97 2.42 1.32 3.56 2.42 4.71 4.93 0.5 3.44 0.5 3.44 0 7-4.35 5.82-11 8.1-17.4 11-1.24 0.56-2.47 1.13-3.71 1.69-3.94 1.79-7.89 3.55-11.8 5.31-0.66 0.3-1.33 0.59-2.01 0.9-4.62 2.05-9.24 4.08-13.9 6.1-1.2 0.53-2.4 1.05-3.64 1.6-8.06 3.48-16.2 6.55-24.5 9.4-2.46-2.32-3.45-3.6-3.88-7-0.1-0.68-0.2-1.36-0.3-2.06 0.25-2.67 1.14-3.22 3.18-4.94 1.83-0.98 3.69-1.89 5.57-2.75 1.14-0.52 2.27-1.04 3.43-1.58 1.23-0.56 2.46-1.11 3.69-1.67 1.25-0.57 2.51-1.15 3.76-1.73 2.57-1.18 5.15-2.35 7.73-3.53 3.64-1.66 7.27-3.33 10.9-5.01 2.15-0.99 4.31-1.99 6.47-2.98 1.01-0.47 2.02-0.93 3.06-1.41 0.93-0.43 1.86-0.85 2.82-1.29 0.81-0.38 1.62-0.75 2.46-1.13 2.1-0.92 2.1-0.92 5.1-1.92-2.48-2.86-5.11-4.16-8.54-5.71-1.13-0.52-2.25-1.04-3.41-1.57-0.6-0.27-1.2-0.54-1.82-0.82-2.51-1.13-5.02-2.29-7.52-3.44-1.95-0.9-3.89-1.79-5.84-2.68-5.99-2.75-12-5.53-17.9-8.34-1.06-0.49-2.12-0.98-3.21-1.48-0.97-0.46-1.95-0.93-2.95-1.4-0.86-0.4-1.71-0.8-2.59-1.21-2.46-1.52-3.76-2.84-5.19-5.35 0.77-3.5 1.46-5.46 4-8z" fill="#000102"/>
<path transform="translate(1191 888)" d="m0 0c3.37-0.19 5.33 0.02 8.44 1.41 3.76 3.96 6.2 9.01 8.78 13.8 1.92 3.5 4.06 6.85 6.22 10.2 0.37 0.6 0.75 1.21 1.13 1.83 0.9 1.42 1.88 2.8 2.87 4.17h2c1.44-2.02 2.76-4.02 4.06-6.13 0.39-0.62 0.79-1.25 1.19-1.89 2.08-3.29 4.13-6.61 6.17-9.93 0.58-0.94 0.58-0.94 1.18-1.9 0.75-1.2 1.49-2.41 2.21-3.62 2.27-3.62 4.2-5.91 8.19-7.53 3.33-0.08 3.33-0.08 6.81 0.31 1.16 0.12 2.32 0.24 3.52 0.36 0.88 0.11 1.76 0.22 2.67 0.33-4.77 11-11.9 20.6-19.1 30.1-0.49 0.67-0.98 1.33-1.49 2.01-0.94 1.25-1.88 2.5-2.84 3.74-0.43 0.57-0.86 1.14-1.3 1.73-0.38 0.49-0.75 0.98-1.14 1.49-3.79 6.18-4.6 11-4.47 18.1 0.01 1.28 0.01 1.28 0.02 2.59 0.01 2.71 0.05 5.42 0.09 8.13 0.02 1.85 0.03 3.7 0.04 5.54 0.03 4.51 0.09 9.02 0.15 13.5-7.96 3.57-7.96 3.57-13 3-3-2-3-2-4-5 0.03-2.84 0.12-5.65 0.25-8.48l0.15-5.22c0.07-2.73 0.16-5.45 0.3-8.17 0.65-13.3-1.22-21.7-9.36-32.4-2.3-3.06-4.36-6.27-6.47-9.47-0.82-1.23-1.64-2.45-2.47-3.68-10.4-15.6-10.4-15.6-10.4-17.6 3.18-0.64 6.36-0.9 9.56-1.41z" fill="#000102"/>
<path transform="translate(894,889)" d="m0 0c7.78-0.08 15.6-0.13 23.3-0.16 2.65-0.02 5.3-0.04 7.95-0.07 3.8-0.03 7.6-0.05 11.4-0.06 1.78-0.03 1.78-0.03 3.59-0.05h3.34c1.46-0.01 1.46-0.01 2.94-0.02 2.45 0.36 2.45 0.36 4.28 1.73 1.69 2.36 1.3 3.92 0.92 6.75-0.11 0.89-0.22 1.78-0.33 2.7-0.42 2.18-0.42 2.18-1.42 3.18l-19 1-1 73c-6 2-6 2-15 1v-74h-11c-5.06-0.31-5.06-0.31-9-1-2.37-3.55-2.11-4.58-1.62-8.69 0.11-0.99 0.22-1.99 0.33-3.01 0.1-0.76 0.19-1.52 0.29-2.3z" fill="#000102"/>
<path transform="translate(1011 889)" d="m0 0c0.87-0.01 1.75-0.03 2.64-0.04 2.68 0.24 4.21 0.98 6.55 2.23 0.21 58.3 0.21 58.3-1 87-1.37 0.22-2.75 0.43-4.13 0.62-0.76 0.12-1.53 0.23-2.32 0.35-3.16 0.03-5.58-0.93-8.55-1.97 0.1-11.3 0.22-22.6 0.34-34 0.05-5.26 0.11-10.5 0.15-15.8 0.05-5.07 0.1-10.1 0.16-15.2 0.02-1.94 0.04-3.88 0.06-5.81 0.02-2.71 0.05-5.42 0.08-8.12 0.01-0.81 0.01-1.62 0.02-2.46 0.09-6.79 0.09-6.79 6-6.83z" fill="#000102"/>
<path transform="translate(900,1060)" d="m0 0c1.67-0.04 3.33-0.04 5 0 2.27 2.27 1.74 8.11 2 11l11 1 1-12h6v30c-0.99 0.33-1.98 0.66-3 1l-2-1c-0.39-2.58-0.51-5.14-0.66-7.75-0.11-0.74-0.22-1.48-0.34-2.25-2.52-1.26-4.31-1.1-7.12-1.06-1.61 0.02-3.22 0.04-4.88 0.06l-1 11-5-1c-1.08-3.24-1.11-5.58-1.1-8.98 0.01-1.16 0.01-2.33 0.01-3.53 0.01-1.21 0.02-2.43 0.03-3.68 0-1.22 0.01-2.45 0.01-3.71 0.01-3.04 0.03-6.07 0.05-9.1z" fill="#000102"/>
<path transform="translate(812,1060)" d="m0 0h21l1 4c-2 2-5.82 1.41-8.56 1.56-1.07 0.07-1.07 0.07-2.16 0.13-1.76 0.11-3.52 0.21-5.28 0.31l-1 7c0.84-0.02 1.69-0.05 2.55-0.07 1.65-0.03 1.65-0.03 3.33-0.05 1.63-0.04 1.63-0.04 3.3-0.08 2.82 0.2 2.82 0.2 4.82 2.2v3c-4.62 0.66-9.24 1.32-14 2l1 4c6.93 0.49 6.93 0.49 14 1l1 5c-1 1-1 1-2.86 1.11-0.79 0-1.58-0.01-2.39-0.01-0.86-0.01-1.71-0.01-2.59-0.01-0.9-0.01-1.8-0.02-2.72-0.03-0.9 0-1.81-0.01-2.73-0.01-2.24-0.01-4.47-0.03-6.71-0.05-1.78-4.58-2.24-8.35-2.19-13.2 0.01-1.22 0.02-2.44 0.02-3.7 0.2-4.7 0.7-9.37 1.17-14z" fill="#000102"/>
<path transform="translate(691,1060)" d="m0 0c3.19 1.19 3.19 1.19 5 3 0.31 2.69 0.31 2.69 0 5-5.75-0.88-5.75-0.88-8-2-2-0.04-4-0.04-6 0 0.13 2.45 0.13 2.45 1 5 2.13 1.29 2.13 1.29 4.75 2 4.46 1.61 7.51 2.94 10.2 7 0.14 4.1-0.37 6.15-2.81 9.44-4.96 2.43-9.77 2.32-15.2 1.56-2.51-1.08-3.93-2.16-6-4l1-5c0.58 0.22 1.16 0.43 1.76 0.66 4.57 1.62 8.32 2.72 13.2 2.34-0.08-2.45-0.08-2.45-1-5-2.39-1.34-2.39-1.34-5.31-2.06-4.28-1.24-6.92-2.36-9.69-5.94-0.5-2.85 0.07-5.28 1-8 4-5.33 9.9-4.75 16-4z" fill="#000102"/>
<path transform="translate(873,1060)" d="m0 0c3 2 3 2 3.69 4.62 0.1 0.79 0.2 1.57 0.31 2.38-0.99 0.33-1.98 0.66-3 1-0.56-0.31-1.11-0.62-1.69-0.94-3.46-1.59-6.52-1.19-10.3-1.06 0.13 1.96 0.13 1.96 1 4 2.14 1.18 2.14 1.18 4.75 1.94 4.46 1.63 7.32 3.18 10.2 7.06 1 2.5 1 2.5 1 5-1.62 3.49-2.76 4.84-6 7-2.74 0.3-2.74 0.3-5.88 0.31-1.02 0.02-2.05 0.04-3.11 0.05-3.43-0.41-5.29-1.26-8.01-3.36-0.81-3.19-0.81-3.19-1-6 0.99 0.31 1.98 0.62 3 0.94 4.57 1.31 9.24 2.06 14 2.06-0.61-2.48-0.61-2.48-2-5-2.47-1.32-2.47-1.32-5.38-2.06-4.24-1.24-6.86-2.39-9.62-5.94-0.5-2.85 0.07-5.28 1-8 4-5.52 10.8-4.76 17-4z" fill="#000102"/>
<path transform="translate(768,1060)" d="m0 0h21l1 4c-2 2-5.82 1.41-8.56 1.56-1.07 0.07-1.07 0.07-2.16 0.13-1.76 0.11-3.52 0.21-5.28 0.31l-1 7h13l1 5-14 1 1 5c6.93 0.49 6.93 0.49 14 1l1 5c-1.56 1.56-3.06 1.13-5.22 1.13-1.27 0-1.27 0-2.57 0.01-1.34-0.01-1.34-0.01-2.71-0.02-0.89 0.01-1.79 0.01-2.71 0.02-0.85 0-1.7-0.01-2.57-0.01h-2.38c-1.84-0.13-1.84-0.13-2.84-1.13-0.27-2.4-0.48-4.77-0.62-7.19-0.05-0.71-0.1-1.42-0.14-2.15-0.37-6.98 0.11-13.7 0.76-20.7z" fill="#000102"/>
<path transform="translate(720,1060)" d="m0 0h5l1 11c2.88 0.96 4.7 1.11 7.69 1.06 1.42-0.02 2.84-0.04 4.31-0.06l1-12h5v31l-4-1-2-11-12-1v12h-5c-1-1-1-1-1.11-3.78 0-1.21 0.01-2.42 0.01-3.66 0.01-1.31 0.01-2.61 0.01-3.96 0.01-1.39 0.02-2.77 0.03-4.16 0-1.4 0.01-2.79 0.01-4.18 0.01-3.42 0.03-6.84 0.05-10.3z" fill="#000102"/>
<path transform="translate(1317 961)" d="m0 0c2.45 1.9 3.42 2.77 4.25 5.75-0.08 4.24-0.62 6.45-3.06 9.94-3.3 2.32-5.06 2.82-9.01 2.54-3.48-0.86-4.92-2.61-6.93-5.48-1.13-3.94-1.41-6.02 0.19-9.81 3.98-4.81 8.86-5.53 14.6-2.94z" fill="#000102"/>
</svg>
